<?xml version="1.0" encoding="iso-8859-1"?>
<!-- Generator: Adobe Illustrator 19.0.0, SVG Export Plug-In . SVG Version: 6.00 Build 0)  -->
<svg version="1.1" id="Capa_1" xmlns="http://www.w3.org/2000/svg" xmlns:xlink="http://www.w3.org/1999/xlink" x="0px" y="0px"
	 viewBox="0 0 512 512" style="enable-background:new 0 0 512 512;" xml:space="preserve">
<g>
	
		<linearGradient id="SVGID_1_" gradientUnits="userSpaceOnUse" x1="-47.7647" y1="611.7111" x2="13.7763" y2="611.7111" gradientTransform="matrix(8.5333 0 0 -8.5333 369.1027 5433.2681)">
		<stop  offset="0" style="stop-color:#B24592"/>
		<stop  offset="1" style="stop-color:#F15F79"/>
	</linearGradient>
	<path style="fill:url(#SVGID_1_);" d="M29.777,213.333c0,4.71,3.823,8.533,8.533,8.533c14.14,0,25.6,11.46,25.6,25.6
		c0,4.71,3.823,8.533,8.533,8.533c4.71,0,8.533-3.823,8.533-8.533c0-14.14,11.46-25.6,25.6-25.6c4.71,0,8.533-3.823,8.533-8.533
		s-3.823-8.533-8.533-8.533c-14.14,0-25.6-11.46-25.6-25.6c0-4.71-3.823-8.533-8.533-8.533c-4.71,0-8.533,3.823-8.533,8.533
		c0,14.14-11.46,25.6-25.6,25.6C33.6,204.8,29.777,208.623,29.777,213.333z M72.444,204.8c2.423,3.234,5.299,6.11,8.533,8.533
		c-3.234,2.423-6.11,5.299-8.533,8.533c-2.423-3.234-5.299-6.11-8.533-8.533C67.144,210.91,70.02,208.034,72.444,204.8z"/>
	
		<linearGradient id="SVGID_2_" gradientUnits="userSpaceOnUse" x1="-47.7647" y1="606.7111" x2="13.7763" y2="606.7111" gradientTransform="matrix(8.5333 0 0 -8.5333 369.1027 5433.2681)">
		<stop  offset="0" style="stop-color:#B24592"/>
		<stop  offset="1" style="stop-color:#F15F79"/>
	</linearGradient>
	<path style="fill:url(#SVGID_2_);" d="M362.577,0c-59.332,0.068-109.628,43.674-118.101,102.4H143.27l-37.888-64.085
		c-1.323-2.278-3.618-3.823-6.229-4.181c-2.628-0.358-5.282,0.521-7.168,2.389l-25.6,25.6c-3.345,3.345-3.345,8.772,0,12.117
		c3.345,3.345,8.772,3.345,12.117,0l17.749-17.835l27.392,45.995H89.51c-3.063-0.009-5.897,1.613-7.424,4.267
		c-1.527,2.637-1.527,5.897,0,8.533l36.011,62.891l0,0l99.413,174.08v94.805l-97.707,48.896c-4.198,2.15-5.854,7.287-3.703,11.486
		c1.451,2.833,4.361,4.625,7.543,4.642h204.8c4.71-0.026,8.508-3.874,8.482-8.585c-0.017-3.183-1.809-6.093-4.642-7.543
		l-97.707-48.896v-94.805l72.533-126.976c58.394,30.72,130.628,8.286,161.348-50.108s8.294-130.628-50.099-161.348
		C401.165,4.693,382.016-0.025,362.577,0z M137.809,178.261l24.832-9.472l38.997,65.963c1.536,2.594,4.326,4.181,7.339,4.181
		c1.527,0,3.038-0.41,4.352-1.195c4.053-2.406,5.393-7.637,2.987-11.691l-37.547-63.488l7.595-2.901
		c8.013-3.106,17.05-1.988,24.064,2.987l29.355,20.992l0,0c8.021,5.751,17.809,8.499,27.648,7.765
		c7.142,9.429,15.625,17.766,25.173,24.747L226.044,332.8L137.809,178.261z M285.35,186.795l17.067-6.912
		c2.406,2.381,4.941,4.634,7.595,6.741l-8.533,14.933c-5.751-4.471-11.017-9.532-15.701-15.104L285.35,186.795z M344.401,160.341
		l25.6-44.8c1.527-2.637,1.527-5.897,0-8.533c-1.442-2.782-4.292-4.548-7.424-4.608h-66.048
		c9.429-36.506,46.66-58.462,83.166-49.033s58.462,46.66,49.033,83.166c-7.791,30.157-35.004,51.226-66.15,51.2
		c-10.428,0.009-20.71-2.415-30.037-7.083L344.401,160.341z M347.9,119.467l-17.067,29.525l-23.979,9.984
		c-8.235-11.52-12.621-25.344-12.544-39.509C294.31,119.467,347.9,119.467,347.9,119.467z M290.982,165.632l-15.957,6.656
		c-9.719-15.906-14.857-34.185-14.848-52.821h17.067C277.218,135.868,281.988,151.919,290.982,165.632z M243.11,119.467
		c0.017,18.594,4.403,36.915,12.8,53.504c-2.227-0.768-4.318-1.86-6.229-3.243l-29.355-20.907
		c-11.657-8.337-26.726-10.257-40.107-5.12l-10.24,3.925l-16.64-28.16C153.34,119.467,243.11,119.467,243.11,119.467z
		 M133.542,119.467l20.309,34.133l-24.576,9.472l-25.088-43.605H133.542z M159.825,494.933l66.219-33.109l66.219,33.109H159.825z
		 M362.577,221.867c-16.375,0-32.503-3.951-47.019-11.52l8.533-14.848c42.061,21.257,93.389,4.395,114.654-37.666
		c21.257-42.061,4.395-93.389-37.666-114.654s-93.389-4.395-114.645,37.666c-3.447,6.818-5.956,14.063-7.475,21.555h-17.067
		c9.429-55.765,62.268-93.329,118.033-83.9s93.321,62.268,83.9,118.033C455.479,185.907,412.65,222.003,362.577,221.867z"/>
	
		<linearGradient id="SVGID_3_" gradientUnits="userSpaceOnUse" x1="-47.7647" y1="608.7111" x2="13.7763" y2="608.7111" gradientTransform="matrix(8.5333 0 0 -8.5333 369.1027 5433.2681)">
		<stop  offset="0" style="stop-color:#B24592"/>
		<stop  offset="1" style="stop-color:#F15F79"/>
	</linearGradient>
	<rect x="234.577" y="230.4" style="fill:url(#SVGID_3_);" width="17.067" height="17.067"/>
	
		<linearGradient id="SVGID_4_" gradientUnits="userSpaceOnUse" x1="-47.7647" y1="604.7111" x2="13.7763" y2="604.7111" gradientTransform="matrix(8.5333 0 0 -8.5333 369.1027 5433.2681)">
		<stop  offset="0" style="stop-color:#B24592"/>
		<stop  offset="1" style="stop-color:#F15F79"/>
	</linearGradient>
	<rect x="217.51" y="264.533" style="fill:url(#SVGID_4_);" width="17.067" height="17.067"/>
</g>
<g>
</g>
<g>
</g>
<g>
</g>
<g>
</g>
<g>
</g>
<g>
</g>
<g>
</g>
<g>
</g>
<g>
</g>
<g>
</g>
<g>
</g>
<g>
</g>
<g>
</g>
<g>
</g>
<g>
</g>
</svg>
